<svg width="36" height="36" viewBox="0 0 36 36" fill="none" xmlns="http://www.w3.org/2000/svg" xmlns:xlink="http://www.w3.org/1999/xlink">
  <mask id="mask0_2_319" style="mask-type:alpha" maskUnits="userSpaceOnUse" x="3" y="3" width="30" height="30">
    <path fill-rule="evenodd" clip-rule="evenodd" d="M30 32.25H6C4.7625 32.25 3.75 31.2375 3.75 30V6C3.75 4.7625 4.7625 3.75 6 3.75H30C31.2375 3.75 32.25 4.7625 32.25 6V30C32.25 31.2375 31.2375 32.25 30 32.25Z" fill="white"/>
  </mask>
  <g mask="url(#mask0_2_319)">
    <path fill-rule="evenodd" clip-rule="evenodd" d="M3.75 32.25V3.75H32.25V32.25H3.75ZM22.1869 9V8.99625C22.7794 8.96438 23.25 8.48063 23.25 7.8825C23.25 7.28437 22.7794 6.79875 22.1869 6.76688V6.76312H19.4981C19.4981 6.75938 19.4986 6.75563 19.4991 6.75188C19.4995 6.74813 19.5 6.74437 19.5 6.74062C19.5 5.9175 18.8287 5.25 18 5.25C17.1713 5.25 16.5 5.9175 16.5 6.74062C16.5 6.74437 16.5005 6.74813 16.5009 6.75188C16.5014 6.75563 16.5019 6.75938 16.5019 6.76312H13.8131V6.76688C13.2206 6.80063 12.75 7.28625 12.75 7.8825C12.75 8.47875 13.2206 8.96438 13.8131 8.99625V9H22.1869Z" fill="#4285F4"/>
  </g>
  <mask id="mask1_2_319" style="mask-type:alpha" maskUnits="userSpaceOnUse" x="3" y="3" width="30" height="30">
    <path fill-rule="evenodd" clip-rule="evenodd" d="M30 32.25H6C4.7625 32.25 3.75 31.2375 3.75 30V6C3.75 4.7625 4.7625 3.75 6 3.75H30C31.2375 3.75 32.25 4.7625 32.25 6V30C32.25 31.2375 31.2375 32.25 30 32.25Z" fill="white"/>
  </mask>
  <g mask="url(#mask1_2_319)">
    <path fill-rule="evenodd" clip-rule="evenodd" d="M30 3.75H6C4.7625 3.75 3.75 4.7625 3.75 6V6.1875C3.75 4.95 4.7625 3.9375 6 3.9375H30C31.2375 3.9375 32.25 4.95 32.25 6.1875V6C32.25 4.7625 31.2375 3.75 30 3.75Z" fill="white" fill-opacity="0.2"/>
  </g>
  <mask id="mask2_2_319" style="mask-type:alpha" maskUnits="userSpaceOnUse" x="3" y="3" width="30" height="30">
    <path fill-rule="evenodd" clip-rule="evenodd" d="M30 32.25H6C4.7625 32.25 3.75 31.2375 3.75 30V6C3.75 4.7625 4.7625 3.75 6 3.75H30C31.2375 3.75 32.25 4.7625 32.25 6V30C32.25 31.2375 31.2375 32.25 30 32.25Z" fill="white"/>
  </mask>
  <g mask="url(#mask2_2_319)">
    <path fill-rule="evenodd" clip-rule="evenodd" d="M3.75 10.5V3.75H32.25V10.5H3.75ZM22.1869 9V8.99625C22.7794 8.96438 23.25 8.48063 23.25 7.8825C23.25 7.28437 22.7794 6.79875 22.1869 6.76688V6.76312H19.4981C19.4981 6.75938 19.4986 6.75563 19.4991 6.75188C19.4995 6.74813 19.5 6.74437 19.5 6.74062C19.5 5.9175 18.8287 5.25 18 5.25C17.1713 5.25 16.5 5.9175 16.5 6.74062C16.5 6.74437 16.5005 6.74813 16.5009 6.75188C16.5014 6.75563 16.5019 6.75938 16.5019 6.76312H13.8131V6.76688C13.2206 6.80063 12.75 7.28625 12.75 7.8825C12.75 8.47875 13.2206 8.96438 13.8131 8.99625V9H22.1869Z" fill="#3F51B5"/>
  </g>
  <mask id="mask3_2_319" style="mask-type:alpha" maskUnits="userSpaceOnUse" x="3" y="3" width="30" height="30">
    <path fill-rule="evenodd" clip-rule="evenodd" d="M30 32.25H6C4.7625 32.25 3.75 31.2375 3.75 30V6C3.75 4.7625 4.7625 3.75 6 3.75H30C31.2375 3.75 32.25 4.7625 32.25 6V30C32.25 31.2375 31.2375 32.25 30 32.25Z" fill="white"/>
  </mask>
  <g mask="url(#mask3_2_319)">
    <path opacity="0.2" fill-rule="evenodd" clip-rule="evenodd" d="M22.1868 9.00937V9.01312H13.8131V9.00937C13.2525 8.97937 12.8006 8.53875 12.7556 7.98187C12.7537 8.01375 12.7518 8.04375 12.7518 8.07562C12.7518 8.67562 13.2225 9.165 13.815 9.19687V9.20062H22.1906V9.19687C22.7831 9.165 23.2537 8.67562 23.2537 8.07562C23.2537 8.04375 23.2518 8.01375 23.25 7.98187C23.1993 8.53687 22.7475 8.9775 22.1868 9.00937Z" fill="white"/>
  </g>
  <mask id="mask4_2_319" style="mask-type:alpha" maskUnits="userSpaceOnUse" x="3" y="3" width="30" height="30">
    <path fill-rule="evenodd" clip-rule="evenodd" d="M30 32.25H6C4.7625 32.25 3.75 31.2375 3.75 30V6C3.75 4.7625 4.7625 3.75 6 3.75H30C31.2375 3.75 32.25 4.7625 32.25 6V30C32.25 31.2375 31.2375 32.25 30 32.25Z" fill="white"/>
  </mask>
  <g mask="url(#mask4_2_319)">
    <path opacity="0.2" fill-rule="evenodd" clip-rule="evenodd" d="M22.1869 6.5775V6.57375H19.4981C19.4981 6.56625 19.5 6.55875 19.5 6.55125C19.5 5.7225 18.8288 5.05125 18 5.05125C17.1713 5.05125 16.5 5.7225 16.5 6.55125C16.5 6.55875 16.5019 6.56625 16.5019 6.57375H13.8131V6.5775C13.2206 6.60937 12.75 7.09875 12.75 7.69875C12.75 7.73062 12.7519 7.76062 12.7538 7.7925C12.8006 7.23562 13.2506 6.795 13.8113 6.765V6.76125H16.5C16.5 6.75375 16.4981 6.74625 16.4981 6.73875C16.4981 5.91 17.1694 5.23875 17.9981 5.23875C18.8269 5.23875 19.4981 5.91 19.4981 6.73875C19.4981 6.74625 19.4963 6.75375 19.4963 6.76125H22.185V6.765C22.7456 6.795 23.1975 7.23562 23.2425 7.7925C23.2444 7.76062 23.2463 7.73062 23.2463 7.69875C23.25 7.09875 22.7794 6.60937 22.1869 6.5775Z" fill="#1A237E"/>
  </g>
  <path fill-rule="evenodd" clip-rule="evenodd" d="M30 32.0625H6C4.7625 32.0625 3.75 31.05 3.75 29.8125V30C3.75 31.2375 4.7625 32.25 6 32.25H30C31.2375 32.25 32.25 31.2375 32.25 30V29.8125C32.25 31.05 31.2375 32.0625 30 32.0625Z" fill="#1A237E" fill-opacity="0.2"/>
  <path fill-rule="evenodd" clip-rule="evenodd" d="M6 3.9375H30C31.2375 3.9375 32.25 4.95 32.25 6.1875V6C32.25 4.7625 31.2375 3.75 30 3.75H6C4.7625 3.75 3.75 4.7625 3.75 6V6.1875C3.75 4.95 4.7625 3.9375 6 3.9375Z" fill="white" fill-opacity="0.2"/>
  <rect opacity="0.2" x="9" y="12.375" width="18.765" height="18.765" fill="url(#pattern0)"/>
  <path fill-rule="evenodd" clip-rule="evenodd" d="M17.67 14.58L24.795 21.705C24.9994 21.9075 25.125 22.1887 25.125 22.5C25.125 22.8094 24.9994 23.0906 24.795 23.295L19.92 28.17C19.7175 28.3744 19.4344 28.5 19.125 28.5C18.8156 28.5 18.5344 28.3744 18.33 28.17L11.205 21.045C11.0006 20.8425 10.875 20.5613 10.875 20.25V15.375C10.875 14.7544 11.3794 14.25 12 14.25H16.875C17.1863 14.25 17.4675 14.3756 17.67 14.58ZM12 16.125C12 16.5394 12.3356 16.875 12.75 16.875C13.1644 16.875 13.5 16.5394 13.5 16.125C13.5 15.7106 13.1644 15.375 12.75 15.375C12.3356 15.375 12 15.7106 12 16.125Z" fill="#F5F5F5"/>
  <path opacity="0.2" fill-rule="evenodd" clip-rule="evenodd" d="M17.67 14.58L24.795 21.705C24.9994 21.9075 25.125 22.1887 25.125 22.5C25.125 22.521 25.1234 22.5411 25.1217 22.5616C25.1209 22.5722 25.12 22.5829 25.1194 22.5938C25.0969 22.3219 24.9787 22.0762 24.795 21.8925L17.67 14.7675C17.4675 14.5631 17.1863 14.4375 16.875 14.4375H12C11.3794 14.4375 10.875 14.9419 10.875 15.5625V15.375C10.875 14.7544 11.3794 14.25 12 14.25H16.875C17.1863 14.25 17.4675 14.3756 17.67 14.58ZM13.5 16.125C13.5 16.5394 13.1644 16.875 12.75 16.875C12.3356 16.875 12 16.5394 12 16.125C12 16.1016 12.003 16.0792 12.0061 16.0563C12.0072 16.0481 12.0084 16.0397 12.0094 16.0312C12.0562 16.4006 12.3675 16.6875 12.75 16.6875C13.1325 16.6875 13.4437 16.4006 13.4906 16.0312C13.4916 16.0397 13.4928 16.0481 13.4939 16.0563C13.497 16.0792 13.5 16.1016 13.5 16.125Z" fill="white"/>
  <path opacity="0.2" fill-rule="evenodd" clip-rule="evenodd" d="M13.4906 16.2188C13.4437 15.8494 13.1325 15.5625 12.75 15.5625C12.3675 15.5625 12.0562 15.8494 12.0094 16.2188C12.0084 16.2103 12.0072 16.2019 12.0061 16.1937C12.003 16.1708 12 16.1484 12 16.125C12 15.7106 12.3356 15.375 12.75 15.375C13.1644 15.375 13.5 15.7106 13.5 16.125C13.5 16.1484 13.497 16.1708 13.4939 16.1937C13.4928 16.2019 13.4916 16.2103 13.4906 16.2188ZM19.92 28.17L24.795 23.295C24.9787 23.1131 25.0969 22.8675 25.1194 22.5938C25.1231 22.6256 25.125 22.6556 25.125 22.6875C25.125 22.9969 24.9994 23.2781 24.795 23.4825L19.92 28.3575C19.7175 28.5619 19.4344 28.6875 19.125 28.6875C18.8156 28.6875 18.5344 28.5619 18.33 28.3575L11.205 21.2325C11.0006 21.03 10.875 20.7488 10.875 20.4375V20.25C10.875 20.5613 11.0006 20.8425 11.205 21.045L18.33 28.17C18.5325 28.3744 18.8156 28.5 19.125 28.5C19.4344 28.5 19.7156 28.3744 19.92 28.17Z" fill="#1A237E"/>
  <path fill-rule="evenodd" clip-rule="evenodd" d="M32.25 29.1713L24.885 21.8063C25.035 21.9975 25.125 22.2375 25.125 22.5C25.125 22.8113 24.9994 23.0925 24.795 23.295L19.92 28.17C19.7156 28.3744 19.4344 28.5 19.125 28.5C18.8625 28.5 18.6225 28.41 18.4313 28.26L22.4213 32.25H32.25V29.1713Z" fill="url(#paint0_linear_2_319)"/>
  <path fill-rule="evenodd" clip-rule="evenodd" d="M32.25 6V30C32.25 31.2375 31.2375 32.25 30 32.2481H6C4.7625 32.2481 3.75 31.2375 3.75 30V5.99813C3.75 4.7625 4.7625 3.75 6 3.75H30C31.2375 3.75 32.25 4.7625 32.25 6ZM22.1869 9V8.99625C22.7794 8.96438 23.25 8.48063 23.25 7.8825C23.25 7.28437 22.7794 6.79875 22.1869 6.76688V6.76312H19.4981C19.4981 6.75938 19.4986 6.75563 19.4991 6.75188C19.4995 6.74813 19.5 6.74437 19.5 6.74062C19.5 5.9175 18.8287 5.25 18 5.25C17.1713 5.25 16.5 5.9175 16.5 6.74062C16.5 6.74437 16.5005 6.74813 16.5009 6.75188C16.5014 6.75563 16.5019 6.75938 16.5019 6.76312H13.8131V6.76688C13.2206 6.80063 12.75 7.28625 12.75 7.8825C12.75 8.47875 13.2206 8.96438 13.8131 8.99625V9H22.1869Z" fill="url(#paint1_radial_2_319)"/>
  <defs>
    <pattern id="pattern0" patternContentUnits="objectBoundingBox" width="1" height="1">
    </pattern>
    <linearGradient id="paint0_linear_2_319" x1="17.0167" y1="28.6632" x2="22.4013" y2="38.0903" gradientUnits="userSpaceOnUse">
      <stop stop-color="#1A237E" stop-opacity="0.2"/>
      <stop offset="1" stop-color="#1A237E" stop-opacity="0.02"/>
    </linearGradient>
    <radialGradient id="paint1_radial_2_319" cx="0" cy="0" r="1" gradientUnits="userSpaceOnUse" gradientTransform="translate(4.6875 4.125) scale(38.1249 38.1224)">
      <stop stop-color="white" stop-opacity="0.1"/>
      <stop offset="1" stop-color="white" stop-opacity="0.01"/>
    </radialGradient>
  </defs>
</svg>
